<?xml version="1.0" encoding="utf-8"?>
<!-- Generator: Adobe Illustrator 24.0.1, SVG Export Plug-In . SVG Version: 6.00 Build 0)  -->
<svg version="1.1" xmlns="http://www.w3.org/2000/svg" xmlns:xlink="http://www.w3.org/1999/xlink" x="0px" y="0px"
	 viewBox="0 0 157 122.9" style="enable-background:new 0 0 157 122.9;" xml:space="preserve">
<style type="text/css">
	.st0{display:none;}
	.st1{display:inline;fill:#1E293B;}
	.st2{display:inline;}
	.st3{fill-rule:evenodd;clip-rule:evenodd;fill:#E2E8F0;}
	.st4{fill:#E2E8F0;stroke:#E2E8F0;stroke-width:4;stroke-miterlimit:10;}
</style>
<g id="Layer_1" class="st0">
	<title>clockwise</title>
	<path class="st1" d="M110.8,30c-1.4-2.1-4.3-2.6-6.3-1.1c-1.9,1.4-2.5,4-1.3,6c1.5,2.3,2.8,4.8,3.9,7.3c1,2.3,3.7,3.4,6,2.4
		c2.3-1,3.4-3.7,2.4-6l0,0C114.1,35.6,112.6,32.7,110.8,30z M102.9,16.4c0.2,0.5,0.3,1,0.3,1.6c0.4,2.5-1.1,4.9-3.5,5.6l-13.5,4.1
		c-2.7,0.8-5.5-0.7-6.3-3.4s0.7-5.5,3.4-6.3l1.3-0.4c-3.2-1.8-6.7-3.2-10.2-4.2c-27.1-7.9-55.5,7.8-63.4,34.9s7.8,55.5,34.9,63.4
		c4.6,1.3,9.4,2,14.3,2c1.4,0,2.6,0,4-0.1c1.9-0.1,3.8-0.4,5.7-0.8c2.4-0.6,4.9,0.9,5.5,3.4s-0.9,4.9-3.4,5.5
		c-0.1,0-0.3,0.1-0.4,0.1c-2.2,0.4-4.5,0.7-6.8,0.9c-1.5,0.1-3.1,0.2-4.6,0.2C27,122.9,0,96-0.1,62.7S26.8,2.5,60.1,2.4
		c10.4,0,20.6,2.7,29.6,7.7l-1.3-3.3c-1.1-2.6,0.1-5.5,2.7-6.6c2.6-1.1,5.5,0.1,6.6,2.7c0.1,0.1,0.1,0.2,0.1,0.4L102.9,16.4
		L102.9,16.4z M51,38.1c0.1-2.6,2.3-4.6,4.9-4.4c2.4,0.1,4.3,2,4.4,4.4v28.4L79.8,75c2.4,1,3.4,3.8,2.4,6.1c-1,2.4-3.8,3.4-6.1,2.4
		l0,0l-22-9.7c-1.8-0.7-3-2.4-3-4.4V38.1z M85.6,107.3c-2.2,1.2-3,4-1.7,6.2c1.2,2.2,4,3,6.2,1.7c2.9-1.6,5.6-3.4,8.1-5.5
		c2-1.5,2.4-4.3,0.9-6.4c-1.5-2-4.3-2.4-6.4-0.9c-0.1,0.1-0.2,0.1-0.3,0.2C90.3,104.4,88,105.9,85.6,107.3z M103.4,90.3
		c-1.3,2.1-0.7,4.9,1.4,6.2s4.9,0.7,6.2-1.4c1.7-2.8,3.2-5.7,4.5-8.7c1.1-2.3,0.1-5-2.2-6c-2.3-1.1-5-0.1-6,2.2
		c-0.1,0.1-0.1,0.2-0.1,0.3C106.2,85.4,104.9,87.9,103.4,90.3z M111.2,66.7c0,2.5,2.1,4.5,4.6,4.5c2.2,0,4.1-1.6,4.4-3.8
		c0.3-3.3,0.3-6.5,0-9.8c0-2.5-1.9-4.6-4.5-4.6c-2.5,0-4.6,1.9-4.6,4.5c0,0.3,0,0.6,0.1,0.9C111.4,61.2,111.4,63.9,111.2,66.7z"/>
</g>
<g id="Capa_2" class="st0">
	<g class="st2">
		<g>
			<path class="st3" d="M132,93.4l-7.2,7.2c-1.9,1.9-5,1.9-6.9,0l-5.8-5.8c-3,1.6-6.2,2.8-9.7,3.6v7.6c0,2.7-2.2,4.9-4.9,4.9H87.2
				c-2.7,0-4.9-2.2-4.9-4.9v-8.3c-3.3-1-6.5-2.5-9.4-4.3l-5.4,5.4c-1.9,1.9-5,1.9-6.9,0l-3.3-3.3l0.1-0.1L71.8,79
				c5.3,6.2,13.1,10.1,21.8,10.1c15.8,0,28.7-12.8,28.7-28.7l0,0l0,0c0-15.8-12.8-28.7-28.7-28.7c-7.9,0-15.1,3.2-20.3,8.4L68,40
				L54.6,28c0.2-0.2,0.3-0.4,0.5-0.6l7.2-7.2c1.9-1.9,5-1.9,6.9,0l5.8,5.8c3-1.6,6.2-2.8,9.7-3.6v-7.6c0-2.7,2.2-4.9,4.9-4.9H100
				c2.7,0,4.9,2.2,4.9,4.9v8.3c3.3,1,6.5,2.5,9.4,4.3l5.4-5.4c1.9-1.9,5-1.9,6.9,0l7.2,7.2c1.9,1.9,1.9,5,0,6.9L128,42
				c1.6,3,2.8,6.2,3.6,9.7h7.6c2.7,0,4.9,2.2,4.9,4.9v10.2c0,2.7-2.2,4.9-4.9,4.9H131c-1,3.3-2.5,6.5-4.3,9.4l5.4,5.4
				C133.9,88.4,133.9,91.5,132,93.4L132,93.4L132,93.4L132,93.4L132,93.4z M93.7,51.1c5.1,0,9.3,4.2,9.3,9.3s-4.2,9.3-9.3,9.3
				c-5.1,0-9.3-4.2-9.3-9.3S88.6,51.1,93.7,51.1L93.7,51.1z M75.1,59.8l-25.3,29L49,75.2c-17.3-2.5-30.5,2.3-40,15.9
				c0.1-26.8,17.5-40.9,38.3-43l-0.9-13.9L75.1,59.8L75.1,59.8L75.1,59.8L75.1,59.8L75.1,59.8L75.1,59.8z"/>
		</g>
	</g>
</g>
<g id="Capa_3" class="st0">
	<path class="st1" d="M24.4,22.5C46.1,9.7,57,15.7,67.1,21.1c8.4,4.5,16,8.6,32.5-5.4c1.6-1.4,4-1.2,5.4,0.4
		c0.5,0.6,0.8,1.3,0.9,2.1l5.1,49.9c0.1,1.2-0.3,2.3-1.2,3.1c-19.1,17.4-30.7,11.5-42.6,5.5c-9.7-4.9-19.6-9.9-36.4,4
		c-0.1,0.1-0.3,0.2-0.5,0.3l2.7,27c0.4,3.3-2,6.3-5.3,6.7c-3.3,0.4-6.3-2-6.7-5.3c0-0.1,0-0.2,0-0.3L12.3,23c-4-2.9-4.9-8.4-2-12.4
		s8.4-4.9,12.4-2s4.9,8.4,2,12.4c-0.1,0.2-0.3,0.4-0.4,0.5L24.4,22.5z"/>
</g>
<g id="Capa_4">
	<path class="st4" d="M78.5,7.9c-2.6,0-4.7,2-4.7,4.6c0,2.6,2,4.7,4.6,4.7c0,0,0.1,0,0.1,0c24.5,0,44.2,19.8,44.2,44.2
		s-19.8,44.2-44.2,44.2S34.3,85.9,34.3,61.4c0-12.7,5.4-24.2,14-32.3v9c0,2.6,2,4.7,4.6,4.7c2.6,0,4.7-2,4.7-4.6c0,0,0-0.1,0-0.1
		V12.5H31.9c-2.6,0-4.7,2-4.7,4.6c0,2.6,2,4.7,4.6,4.7c0,0,0.1,0,0.1,0h10.5C31.7,31.7,25,45.8,25,61.4C25,91,49,115,78.5,115
		s53.6-24,53.6-53.5S108,7.9,78.5,7.9z"/>
</g>
</svg>
